<mxfile host="app.diagrams.net" modified="2023-09-18T13:20:42.363Z" agent="Mozilla/5.0 (Macintosh; Intel Mac OS X 10_15_7) AppleWebKit/605.1.15 (KHTML, like Gecko) Version/16.4 Safari/605.1.15" etag="Jx4m-l6KubFcu9KyMMML" version="21.7.2" type="device">
  <diagram name="Page-1" id="AsP60JgBl1jaJY_T1ypP">
    <mxGraphModel dx="1194" dy="509" grid="1" gridSize="10" guides="1" tooltips="1" connect="1" arrows="1" fold="1" page="1" pageScale="1" pageWidth="827" pageHeight="1169" math="0" shadow="0">
      <root>
        <mxCell id="0" />
        <mxCell id="1" parent="0" />
        <mxCell id="Z3GVn9q660Q-xpyVM-ZC-12" value="" style="whiteSpace=wrap;html=1;aspect=fixed;fillColor=#FFFFFF;strokeColor=#1A1A1A;strokeWidth=2;dashed=1;" parent="1" vertex="1">
          <mxGeometry x="10" y="70" width="310" height="310" as="geometry" />
        </mxCell>
        <mxCell id="Z3GVn9q660Q-xpyVM-ZC-11" value="" style="whiteSpace=wrap;html=1;aspect=fixed;fillColor=#FFFFFF;strokeColor=#1A1A1A;strokeWidth=2;dashed=1;" parent="1" vertex="1">
          <mxGeometry x="470" y="70" width="300" height="300" as="geometry" />
        </mxCell>
        <mxCell id="Z3GVn9q660Q-xpyVM-ZC-8" value="" style="endArrow=none;html=1;exitX=0.408;exitY=0.967;exitDx=0;exitDy=0;strokeWidth=2;endFill=0;curved=1;strokeColor=default;exitPerimeter=0;" parent="1" edge="1">
          <mxGeometry width="50" height="50" relative="1" as="geometry">
            <mxPoint x="653.96" y="178.01999999999998" as="sourcePoint" />
            <mxPoint x="600" y="280" as="targetPoint" />
            <Array as="points">
              <mxPoint x="620" y="220" />
            </Array>
          </mxGeometry>
        </mxCell>
        <mxCell id="Z3GVn9q660Q-xpyVM-ZC-18" value="" style="endArrow=none;html=1;rounded=0;strokeWidth=2;endFill=0;exitX=1;exitY=0.5;exitDx=0;exitDy=0;entryX=0;entryY=0.5;entryDx=0;entryDy=0;strokeColor=#67AB9F;" parent="1" target="Z3GVn9q660Q-xpyVM-ZC-17" edge="1">
          <mxGeometry width="50" height="50" relative="1" as="geometry">
            <mxPoint x="290" y="190" as="sourcePoint" />
            <mxPoint x="370" y="200" as="targetPoint" />
          </mxGeometry>
        </mxCell>
        <mxCell id="Z3GVn9q660Q-xpyVM-ZC-20" value="" style="rounded=0;orthogonalLoop=1;jettySize=auto;html=1;strokeWidth=2;endArrow=none;endFill=0;exitX=1;exitY=0.5;exitDx=0;exitDy=0;entryX=0;entryY=0.5;entryDx=0;entryDy=0;strokeColor=#67AB9F;" parent="1" source="Z3GVn9q660Q-xpyVM-ZC-17" edge="1">
          <mxGeometry relative="1" as="geometry">
            <mxPoint x="430" y="200" as="sourcePoint" />
            <mxPoint x="480" y="195" as="targetPoint" />
          </mxGeometry>
        </mxCell>
        <mxCell id="Z3GVn9q660Q-xpyVM-ZC-17" value="" style="ellipse;whiteSpace=wrap;html=1;aspect=fixed;strokeColor=#67AB9F;fillColor=#67AB9F;" parent="1" vertex="1">
          <mxGeometry x="350" y="180" width="20" height="20" as="geometry" />
        </mxCell>
        <mxCell id="Z3GVn9q660Q-xpyVM-ZC-19" value="gRPC" style="text;html=1;strokeColor=none;fillColor=none;align=center;verticalAlign=middle;whiteSpace=wrap;rounded=0;" parent="1" vertex="1">
          <mxGeometry x="330" y="205" width="60" height="30" as="geometry" />
        </mxCell>
        <mxCell id="Z3GVn9q660Q-xpyVM-ZC-23" value="" style="endArrow=none;html=1;rounded=0;exitX=0.5;exitY=1;exitDx=0;exitDy=0;strokeWidth=2;endFill=0;" parent="1" edge="1">
          <mxGeometry width="50" height="50" relative="1" as="geometry">
            <mxPoint x="230" y="220" as="sourcePoint" />
            <mxPoint x="145" y="290.21739130434787" as="targetPoint" />
          </mxGeometry>
        </mxCell>
        <mxCell id="Z3GVn9q660Q-xpyVM-ZC-24" value="" style="endArrow=none;html=1;rounded=0;strokeWidth=2;endFill=0;exitX=0.367;exitY=-0.014;exitDx=0;exitDy=0;exitPerimeter=0;" parent="1" edge="1">
          <mxGeometry width="50" height="50" relative="1" as="geometry">
            <mxPoint x="107.01999999999998" y="279.02" as="sourcePoint" />
            <mxPoint x="90.73312629199881" y="219.35479640399535" as="targetPoint" />
          </mxGeometry>
        </mxCell>
        <mxCell id="Z3GVn9q660Q-xpyVM-ZC-31" value="" style="endArrow=none;html=1;rounded=0;exitX=0.65;exitY=0.995;exitDx=0;exitDy=0;strokeWidth=2;endFill=0;exitPerimeter=0;entryX=0.145;entryY=0;entryDx=0;entryDy=4.35;entryPerimeter=0;" parent="1" edge="1">
          <mxGeometry width="50" height="50" relative="1" as="geometry">
            <mxPoint x="558" y="224.70000000000005" as="sourcePoint" />
            <mxPoint x="568.7" y="284.35" as="targetPoint" />
          </mxGeometry>
        </mxCell>
        <mxCell id="eVnzltR1cNxZQ9g7ooaY-1" value="event journal and offset store&lt;br&gt;" style="text;html=1;strokeColor=none;fillColor=none;align=center;verticalAlign=middle;whiteSpace=wrap;rounded=0;" parent="1" vertex="1">
          <mxGeometry x="528.5" y="340" width="120" height="30" as="geometry" />
        </mxCell>
        <mxCell id="eVnzltR1cNxZQ9g7ooaY-2" value="Edge Service" style="text;html=1;strokeColor=none;fillColor=none;align=left;verticalAlign=middle;whiteSpace=wrap;rounded=0;fontSize=16;" parent="1" vertex="1">
          <mxGeometry x="470" y="40" width="140" height="30" as="geometry" />
        </mxCell>
        <mxCell id="eVnzltR1cNxZQ9g7ooaY-3" value="Cloud Service" style="text;html=1;strokeColor=none;fillColor=none;align=left;verticalAlign=middle;whiteSpace=wrap;rounded=0;fontSize=16;" parent="1" vertex="1">
          <mxGeometry x="10" y="40" width="140" height="30" as="geometry" />
        </mxCell>
        <mxCell id="eVnzltR1cNxZQ9g7ooaY-4" value="" style="endArrow=none;html=1;exitX=1;exitY=0;exitDx=0;exitDy=0;strokeWidth=2;endFill=0;curved=1;strokeColor=default;" parent="1" edge="1">
          <mxGeometry width="50" height="50" relative="1" as="geometry">
            <mxPoint x="707.426406871193" y="128.78679656440352" as="sourcePoint" />
            <mxPoint x="610" y="282" as="targetPoint" />
            <Array as="points">
              <mxPoint x="630" y="222" />
            </Array>
          </mxGeometry>
        </mxCell>
        <mxCell id="eVnzltR1cNxZQ9g7ooaY-5" value="event journal and offset store db" style="text;html=1;strokeColor=none;fillColor=none;align=center;verticalAlign=middle;whiteSpace=wrap;rounded=0;" parent="1" vertex="1">
          <mxGeometry x="50" y="340" width="120" height="30" as="geometry" />
        </mxCell>
        <mxCell id="ZGsqTpxpcEWLfMhcQ5nx-3" value="Producer" style="rounded=1;whiteSpace=wrap;html=1;fillColor=#b1ddf0;strokeColor=none;" vertex="1" parent="1">
          <mxGeometry x="480" y="170" width="120" height="60" as="geometry" />
        </mxCell>
        <mxCell id="ZGsqTpxpcEWLfMhcQ5nx-4" value="Consumer" style="rounded=1;whiteSpace=wrap;html=1;fillColor=#f0a30a;fontColor=#000000;strokeColor=none;" vertex="1" parent="1">
          <mxGeometry x="170" y="160" width="120" height="60" as="geometry" />
        </mxCell>
        <mxCell id="ZGsqTpxpcEWLfMhcQ5nx-5" value="Projection &lt;br&gt;consuming events" style="ellipse;whiteSpace=wrap;html=1;fillColor=#f0a30a;strokeColor=#FFD966;fontColor=#000000;" vertex="1" parent="1">
          <mxGeometry x="20" y="140" width="120" height="80" as="geometry" />
        </mxCell>
        <mxCell id="ZGsqTpxpcEWLfMhcQ5nx-6" value="" style="group" vertex="1" connectable="0" parent="1">
          <mxGeometry x="550" y="280" width="77" height="60" as="geometry" />
        </mxCell>
        <mxCell id="ZGsqTpxpcEWLfMhcQ5nx-7" value="" style="ellipse;whiteSpace=wrap;html=1;fillColor=#15a9ce;strokeColor=#FFFFFF;strokeWidth=2;" vertex="1" parent="ZGsqTpxpcEWLfMhcQ5nx-6">
          <mxGeometry y="40" width="77" height="20" as="geometry" />
        </mxCell>
        <mxCell id="ZGsqTpxpcEWLfMhcQ5nx-8" value="" style="ellipse;whiteSpace=wrap;html=1;fillColor=#15a9ce;strokeColor=#FFFFFF;strokeWidth=2;" vertex="1" parent="ZGsqTpxpcEWLfMhcQ5nx-6">
          <mxGeometry y="32" width="77" height="20" as="geometry" />
        </mxCell>
        <mxCell id="ZGsqTpxpcEWLfMhcQ5nx-9" value="" style="ellipse;whiteSpace=wrap;html=1;fillColor=#15a9ce;strokeColor=#FFFFFF;strokeWidth=2;" vertex="1" parent="ZGsqTpxpcEWLfMhcQ5nx-6">
          <mxGeometry y="24" width="77" height="20" as="geometry" />
        </mxCell>
        <mxCell id="ZGsqTpxpcEWLfMhcQ5nx-10" value="" style="ellipse;whiteSpace=wrap;html=1;fillColor=#15a9ce;strokeColor=#FFFFFF;strokeWidth=2;" vertex="1" parent="ZGsqTpxpcEWLfMhcQ5nx-6">
          <mxGeometry y="16" width="77" height="20" as="geometry" />
        </mxCell>
        <mxCell id="ZGsqTpxpcEWLfMhcQ5nx-11" value="" style="ellipse;whiteSpace=wrap;html=1;fillColor=#15a9ce;strokeColor=#FFFFFF;strokeWidth=2;" vertex="1" parent="ZGsqTpxpcEWLfMhcQ5nx-6">
          <mxGeometry y="8" width="77" height="20" as="geometry" />
        </mxCell>
        <mxCell id="ZGsqTpxpcEWLfMhcQ5nx-12" value="" style="ellipse;whiteSpace=wrap;html=1;fillColor=#15a9ce;strokeColor=#FFFFFF;strokeWidth=2;" vertex="1" parent="ZGsqTpxpcEWLfMhcQ5nx-6">
          <mxGeometry width="77" height="20" as="geometry" />
        </mxCell>
        <mxCell id="ZGsqTpxpcEWLfMhcQ5nx-21" value="" style="group" vertex="1" connectable="0" parent="1">
          <mxGeometry x="70" y="280" width="77" height="60" as="geometry" />
        </mxCell>
        <mxCell id="ZGsqTpxpcEWLfMhcQ5nx-22" value="" style="ellipse;whiteSpace=wrap;html=1;fillColor=#FFD966;strokeColor=#FFFFFF;strokeWidth=2;" vertex="1" parent="ZGsqTpxpcEWLfMhcQ5nx-21">
          <mxGeometry y="40" width="77" height="20" as="geometry" />
        </mxCell>
        <mxCell id="ZGsqTpxpcEWLfMhcQ5nx-23" value="" style="ellipse;whiteSpace=wrap;html=1;fillColor=#FFD966;strokeColor=#FFFFFF;strokeWidth=2;" vertex="1" parent="ZGsqTpxpcEWLfMhcQ5nx-21">
          <mxGeometry y="32" width="77" height="20" as="geometry" />
        </mxCell>
        <mxCell id="ZGsqTpxpcEWLfMhcQ5nx-24" value="" style="ellipse;whiteSpace=wrap;html=1;fillColor=#FFD966;strokeColor=#FFFFFF;strokeWidth=2;" vertex="1" parent="ZGsqTpxpcEWLfMhcQ5nx-21">
          <mxGeometry y="24" width="77" height="20" as="geometry" />
        </mxCell>
        <mxCell id="ZGsqTpxpcEWLfMhcQ5nx-25" value="" style="ellipse;whiteSpace=wrap;html=1;fillColor=#FFD966;strokeColor=#FFFFFF;strokeWidth=2;container=0;" vertex="1" parent="ZGsqTpxpcEWLfMhcQ5nx-21">
          <mxGeometry y="16" width="77" height="20" as="geometry" />
        </mxCell>
        <mxCell id="ZGsqTpxpcEWLfMhcQ5nx-26" value="" style="ellipse;whiteSpace=wrap;html=1;fillColor=#FFD966;strokeColor=#FFFFFF;strokeWidth=2;" vertex="1" parent="ZGsqTpxpcEWLfMhcQ5nx-21">
          <mxGeometry y="8" width="77" height="20" as="geometry" />
        </mxCell>
        <mxCell id="ZGsqTpxpcEWLfMhcQ5nx-27" value="" style="ellipse;whiteSpace=wrap;html=1;fillColor=#FFD966;strokeColor=#FFFFFF;strokeWidth=2;" vertex="1" parent="ZGsqTpxpcEWLfMhcQ5nx-21">
          <mxGeometry width="77" height="20" as="geometry" />
        </mxCell>
        <mxCell id="ZGsqTpxpcEWLfMhcQ5nx-28" value="Entity B-1" style="ellipse;whiteSpace=wrap;html=1;fillColor=#99CCFF;strokeColor=#7EA6E0;fontColor=#000000;" vertex="1" parent="1">
          <mxGeometry x="627" y="80" width="120" height="60" as="geometry" />
        </mxCell>
        <mxCell id="ZGsqTpxpcEWLfMhcQ5nx-29" value="Entity B-2" style="ellipse;whiteSpace=wrap;html=1;fillColor=#99CCFF;strokeColor=#7EA6E0;fontColor=#000000;" vertex="1" parent="1">
          <mxGeometry x="620" y="120" width="120" height="60" as="geometry" />
        </mxCell>
      </root>
    </mxGraphModel>
  </diagram>
</mxfile>
